<svg xmlns="http://www.w3.org/2000/svg" width="1633" height="900.501" viewBox="0 0 1633 900.501"><defs><style>.a{fill:#a2acc3;stroke:#a2acc4;opacity:0.4;}</style></defs><path class="a" d="M1594.309,0c.218,23.949.62,64.918,1.173,81.7q-36.571.194-73.132.376.177-8.9.365-17.8c.235-11.272.5-44.647.792-64.277h-.914c-.436,24.043-.807,65.168-1.135,82.078q-45.7.247-91.4.482.105-19.475.259-38.928c.032-5.049.087-28.563.142-43.632h-.925c-.156,24.16-.291,65.488-.392,82.56l-.725.005v-.474c-6.164-.035-23.733.1-41.2.234-17.161.132-34.225.265-40.275.235-.1-17.071-.235-58.4-.392-82.56h-.925c.056,15.069.109,38.583.142,43.632q.175,19.459.258,38.928-45.7-.246-91.4-.482c-.328-16.911-.7-58.036-1.135-82.078h-.914c.29,19.63.557,53,.793,64.277q.193,8.9.364,17.8-36.571-.193-73.132-.376c.553-16.784.955-57.753,1.173-81.7h-.841c-.046,14.291-.1,35.871-.167,39.825Q1180.4,60.781,1179.7,81.7q-46.038-.228-92.063-.482c-.011-16.623-.012-57.388-.012-81.221h-.9c.01,23.822.01,64.587.01,81.221q-41.454-.211-82.92-.435h-1.281c.339-16.5.711-57.079,1.094-80.786h-.894c-.382,23.717-.743,64.29-1.093,80.774q-47.218-.229-94.459-.47c-.271-16.333-.576-56.724-.922-80.3h-.966c.078,14.315.167,35.933.254,39.929q.405,20.165.728,40.375-45.719-.247-91.439-.47c-.056-15.685-.124-61.778-.181-79.835h-.917c.044,19.234.078,51.827.122,62.585.012,5.746.048,11.491.071,17.236q-43.922-.209-87.844-.445c-.067-16.045-.168-56.029-.269-79.376h-.91c.042,15.186.065,38.978.1,44.185q.105,17.589.188,35.191c-3.491-.022-21.363-.011-39.281,0l-7,0v-.122c-7,.047-14.03.07-21.033.117q.089-17.607.189-35.191c.033-5.207.056-29,.1-44.185h-.909c-.1,23.347-.2,63.331-.27,79.376l-2.8.013c-3.9,0-6.72-.005-7.9-.013v.052q-38.571.193-77.144.393c.023-5.745.059-11.49.071-17.236.045-10.758.079-43.351.122-62.585h-.917c-.057,18.057-.125,64.15-.181,79.835q-45.719.228-91.439.47.335-20.2.728-40.375c.089-4,.177-25.614.255-39.929h-.967c-.346,23.581-.65,63.972-.922,80.3q-47.235.229-94.458.47c-.351-16.484-.712-57.057-1.094-80.774h-.893c.383,23.707.754,64.291,1.093,80.786h-1.281q-41.454.229-82.921.435c0-16.633,0-57.4.011-81.221h-.9c0,23.832,0,64.6-.012,81.221q-46.036.247-92.062.482-.687-20.921-1.057-41.877c-.066-3.954-.121-25.534-.167-39.825h-.842c.218,23.949.62,64.918,1.173,81.7q-36.571.194-73.132.376.177-8.9.365-17.8c.235-11.272.5-44.647.792-64.277h-.914c-.436,24.043-.807,65.168-1.135,82.078q-45.7.247-91.4.482.105-19.475.259-38.928c.032-5.049.087-28.563.142-43.632h-.925c-.156,24.16-.291,65.488-.392,82.56Q18.074,82.648,0,82.746v.893q18.063-.087,36.137-.186c-.105,19.611-.165,49.792-.2,69.4v16.357Q17.98,169.42,0,169.641v.893q17.975-.21,35.937-.405,0,41.014.258,82.015-18.1.384-36.2.8v.9q18.1-.417,36.2-.811.229,37.171.658,74.344Q18.42,327.535,0,327.7v.893q18.433-.173,36.865-.324.282,24.251.624,48.5.228,15.422.5,30.832Q19,407.644,0,407.69v.894q19.014-.052,38-.081c.061,3.387.172,5.854.3,7.4-.114,23.87-.129,62.906-.3,72.333q-19-.035-38-.081v.893q19,.051,37.993.081-.263,15.422-.5,30.833-.354,24.251-.624,48.5Q18.432,568.31,0,568.142v.893q18.432.173,36.853.324-.44,37.171-.658,74.344-18.1-.383-36.2-.811v.9q18.1.416,36.2.8-.246,41.013-.258,82.015Q17.98,726.418,0,726.2v.893q17.975.226,35.937.428v16.357c.035,19.611.094,49.792.2,69.4Q18.074,813.2,0,813.1v.893q18.079.1,36.137.185c.105,17.743.247,61.682.41,85.323h.917c-.059-14.77-.118-41.025-.152-46.4q-.177-19.458-.259-38.928,45.7.247,91.4.482c.341,17.579.729,61.317,1.187,84.841h.9c-.305-19.094-.588-55.219-.834-67.039q-.193-8.9-.365-17.8,36.573.194,73.132.377c-.575,17.448-.986,61.034-1.2,84.464h.858c.048-14.089.106-38.37.176-42.587q.352-20.956,1.057-41.877,46.036.228,92.062.482c.012,17.284.012,60.67.012,83.983h.905c-.013-23.3-.013-66.687-.013-83.983q41.454.211,82.921.435h1.281c-.353,17.155-.74,60.365-1.139,83.548h.893c.4-23.195.775-66.393,1.14-83.536q47.218.228,94.458.47c.283,16.99.6,60.013.964,83.066h.94c-.082-14.112-.176-38.428-.271-42.693q-.4-20.164-.728-40.373,45.719.246,91.439.47c.059,16.321.13,65.57.188,81.892v.7h.916c-.047-18.706-.082-54.056-.129-65.347-.012-5.746-.048-11.491-.07-17.238q43.921.212,87.843.447c.071,16.7.176,59.318.283,82.138h.9c-.047-14.875-.07-41.413-.105-46.947q-.107-17.589-.189-35.191c3.49.023,21.363.012,39.281,0l7,0v.121c7-.048,14.03-.07,21.033-.118q-.088,17.608-.188,35.192c-.035,5.534-.059,32.071-.106,46.947h.905c.105-22.819.211-65.442.282-82.139l2.5-.013c4.056,0,6.987.005,8.195.014v-.053q38.571-.193,77.144-.394c-.023,5.746-.059,11.492-.071,17.238-.047,11.291-.082,46.642-.129,65.347h.916v-.7c.059-16.322.13-65.571.188-81.892q45.72-.228,91.439-.47-.335,20.2-.728,40.373c-.094,4.265-.188,28.581-.27,42.693h.94c.364-23.053.682-66.076.964-83.066q47.235-.229,94.459-.47c.365,17.143.74,60.341,1.139,83.536h.894c-.4-23.183-.788-66.393-1.14-83.548h1.281q41.454-.23,82.92-.435c0,17.3,0,60.682-.012,83.983h.9c0-23.313,0-66.7.012-83.983q46.038-.247,92.063-.482.686,20.92,1.057,41.877c.069,4.217.129,28.5.176,42.587h.857c-.212-23.43-.623-67.016-1.2-84.464q36.572-.194,73.132-.377-.177,8.9-.364,17.8c-.248,11.821-.529,47.946-.834,67.039h.9c.459-23.524.846-67.262,1.187-84.841q45.7-.246,91.4-.482-.105,19.477-.258,38.928c-.035,5.37-.094,31.625-.153,46.4h.917c.165-23.641.305-67.58.41-85.323q18.313-.088,36.637-.188V813.1q-18.313.088-36.637.188c.106-19.611.165-49.792.2-69.4V727.526c10.2-.118,53.407-.178,74.132-.286,1.453.132,4.009.244,7.667.286v16.357c.035,19.611.094,49.792.2,69.4-12.208-.059-12.208.834,0,.893.105,17.743.247,61.682.41,85.323h.917c-.058-14.77-.118-41.025-.152-46.4q-.177-19.458-.259-38.928,45.7.247,91.4.482c.341,17.579.729,61.317,1.187,84.841h.9c-.305-19.094-.588-55.219-.834-67.039q-.193-8.9-.365-17.8,36.573.194,73.132.377c-.575,17.448-.986,61.034-1.2,84.464h.858c.048-14.089.106-38.37.176-42.587q.352-20.956,1.057-41.877,17.814.088,35.624.182v-.894q-17.793-.092-35.589-.181c.823-24.863,1.951-60.3,3.219-85.113q16.182.1,32.37.188v-.909q-16.162-.092-32.323-.2c1.364-26.849,2.891-53.7,4.36-80.535q13.983.176,27.963.328v-.9q-13.954-.153-27.9-.323.67-12.548,1.339-25.086,1.322-25.451,2.467-50.89,12.049.079,24.1.153v-.9l-24.062-.146c1.163-26.768,2.044-53.546,2.479-80.324l21.583.041v-.911l-21.571-.046c.169-10.65.086-58.409.027-80.415l21.544-.046V407.2l-21.546.041c-.01-3.542-.019-6.346-.025-8.119h-.157q-.706-36.108-2.333-72.205l24.062-.147v-.9q-12.051.074-24.1.153-1.11-25.45-2.467-50.89-.652-12.531-1.339-25.087,13.951-.169,27.9-.322v-.9q-13.982.153-27.963.328c-1.469-26.837-3-53.687-4.36-80.536q16.162-.1,32.323-.2v-.909q-16.185.086-32.37.188c-1.268-24.816-2.4-60.25-3.219-85.113q17.8-.088,35.589-.181v-.894q-17.811.093-35.624.182-.687-20.92-1.057-41.877c-.066-3.954-.121-25.534-.167-39.825ZM657.88,80.3c7.547,0,17.707-.009,27.865-.015,17.974-.012,35.947-.023,39.449-.012.13,25.6.247,61.811.329,87.415-3.263.016-18.685.005-35.119-.005-11.805-.008-24.132-.016-32.852-.013C657.635,142.071,657.752,105.891,657.88,80.3Zm68.488,70.175c-.082-19.869-.175-50.333-.282-70.2l67.586.352c6.756.024,13.5.071,20.257.094.094,25.322.188,61.213.293,86.522q-43.9.158-87.8.446Q726.374,159.084,726.368,150.471ZM568.85,167.238c.105-25.31.2-61.2.293-86.522,6.757-.023,13.5-.07,20.257-.094l62.047-.324h5.539c-.105,19.871-.2,50.315-.282,70.175q-.018,8.609-.059,17.195h-2.888Q611.316,167.413,568.85,167.238ZM815.082,153.89c-.094-20.857-.165-52.3-.247-73.151q45.72.211,91.463.458c.41,25.087.752,60.731,1.01,85.818q-46.089.07-92.191.223C815.1,162.785,815.093,158.343,815.082,153.89ZM475.766,167.015c.258-25.087.6-60.731,1.01-85.818q45.738-.246,91.463-.458c-.083,20.856-.153,52.294-.247,73.151-.012,4.453-.023,8.895-.035,13.348Q521.85,167.061,475.766,167.015ZM908,148.45c-.211-18.895-.494-48.358-.812-67.253q47.219.265,94.436.494c-.541,24.91-1.046,60.413-1.516,85.324H996.48q-44.134-.07-88.279,0Q908.113,157.726,908,148.45ZM381.448,81.691q47.235-.247,94.436-.494c-.318,18.895-.6,48.358-.811,67.253q-.107,9.27-.2,18.565-44.152-.036-88.278,0h-3.632C382.495,142.1,381.989,106.6,381.448,81.691ZM1001,167.027c.411-22.055.869-54.691,1.328-76.758.059-2.867.118-5.711.189-8.577q42.105.211,84.212.434c.012,24.852.023,60.286.023,85.136Q1043.874,167.085,1001,167.027Zm-704.661-84.9q42.106-.212,84.213-.435c.07,2.866.13,5.71.188,8.577.458,22.067.917,54.7,1.328,76.758q-42.881.07-85.752.235C296.319,142.411,296.33,106.977,296.342,82.126Zm791.33,85.135q-.016-15.633-.011-31.255c0-14.43-.024-39.44-.024-53.881q46.019.229,92.027.47c-.823,24.863-1.95,60.3-3.219,85.113Q1132.064,167.426,1087.672,167.261ZM203.411,82.595q46.019-.228,92.027-.469c0,14.441-.024,39.451-.024,53.88q0,15.634-.011,31.255-44.38.176-88.772.446C205.362,142.892,204.233,107.458,203.411,82.595Zm1318.927.389q36.591-.177,73.168-.365c.611,18.447,1.386,47.477,2.28,65.913.293,6.4.623,12.8.94,19.175q-38.757.265-77.527.6C1521.492,143.4,1521.869,107.894,1522.338,82.984Zm-344.99,84.724c.318-6.38.646-12.773.94-19.175.893-18.437,1.669-47.466,2.279-65.913q36.591.176,73.168.365c.47,24.91.846,60.413,1.139,85.324Q1216.118,167.973,1177.349,167.708ZM129.338,82.984q36.59-.177,73.168-.365c.611,18.447,1.386,47.477,2.28,65.913.293,6.4.623,12.8.94,19.175q-38.757.265-77.527.6C128.492,143.4,128.868,107.894,129.338,82.984Zm1258.336.235c14.3-.108,28.6-.217,36.582-.236,1.376.231,4.881.471,4.881.471-.105,19.611-.165,49.792-.2,69.4v16.357l-.526.007v-.23c-6.133-.077-23.689.017-41.135.11-17.117.092-34.129.184-40.139.113V152.856c-.036-19.611-.094-49.792-.2-69.4.588,0,1.281,0,2.066,0C1356.376,83.458,1372.025,83.338,1387.674,83.219Zm42.368.235,75.883-.388q7.755-.053,15.521-.082c-.493,24.921-.869,60.413-1.163,85.335q-45.226.387-90.453.881C1429.83,144.149,1429.913,108.5,1430.042,83.453Zm-174.249,84.865c-.294-24.922-.67-60.414-1.164-85.335q7.773.035,15.522.082l75.882.388c.13,25.051.211,60.7.211,85.747Q1301.019,168.707,1255.792,168.319ZM37.041,83.453l75.883-.388q7.754-.053,15.521-.082c-.493,24.921-.869,60.413-1.163,85.335q-45.226.387-90.453.881C36.83,144.149,36.913,108.5,37.041,83.453ZM908.225,167.9q45.93-.035,91.874.035-.74,38.494-1.387,76.951c-.012.964-.023,1.916-.047,2.856-3.314-.011-6.615-.023-9.929-.047q-39.992-.123-79.983-.082Q908.631,207.741,908.225,167.9ZM384.362,244.882q-.652-38.457-1.386-76.951,45.93-.07,91.874-.035-.406,39.868-.528,79.713-39.992-.036-79.984.082c-3.314.023-6.615.036-9.929.047C384.386,246.8,384.374,245.846,384.362,244.882Zm430.779-76.739q46.089-.177,92.167-.247.406,39.868.552,79.713-46.212.016-92.425.293Q815.294,208.017,815.141,168.143ZM475.214,247.609q.14-39.868.552-79.713,46.071.07,92.167.247-.14,39.886-.293,79.76Q521.428,247.639,475.214,247.609Zm524.367.129q.67-39.9,1.4-79.807,42.918.053,85.775.224l.035,80.123Q1043.187,247.909,999.581,247.738ZM296.319,168.155Q339.2,168,382.1,167.931q.757,39.921,1.4,79.807-43.587.177-87.209.541Zm430.109.422q31.566-.194,63.121-.34,12.355-.053,24.674-.094.159,39.886.305,79.76-43.938.23-87.9.681Q726.557,208.575,726.428,168.577ZM568.545,247.9q.158-39.886.305-79.76,12.338.051,24.675.094,26.374.116,52.762.277v.063c1.224-.008,4.161-.013,8.219-.013l2.139.013q-.122,39.991-.2,80.006Q612.49,248.144,568.545,247.9Zm519.139.388q0-40.08-.013-80.135,44.364.174,88.726.469c-1.364,26.849-2.891,53.7-4.36,80.536Q1129.861,248.63,1087.684,248.29ZM206.677,168.624q44.362-.284,88.726-.469,0,40.061-.012,80.135-42.194.352-84.354.869C209.568,222.323,208.04,195.473,206.677,168.624Zm472.236-.051c2.366,0,4.766,0,7.164,0,17.971.012,35.9.023,39.445,0q.159,39.991.2,80.018c-4.068.04-26.657.148-46.809.248v-.025q-10.786-.123-21.561-.223.053-40.026.2-80.018l21.361.141Zm842.274.627q38.794-.316,77.6-.576c1.352,26.849,2.879,53.71,4.348,80.547q-41.314.528-82.626,1.222Q1520.716,209.786,1521.187,169.2Zm-348.245,79.971c1.47-26.837,3-53.7,4.348-80.547q38.811.265,77.6.576.477,40.609.682,81.193Q1214.255,249.688,1172.942,249.171ZM128.187,169.2q38.794-.316,77.6-.576c1.352,26.849,2.879,53.71,4.348,80.547q-41.314.528-82.626,1.222Q127.716,209.786,128.187,169.2Zm1301.643.916q43.764-.475,87.491-.881c.987,0,1.963-.023,2.949-.023v.74q-.475,40.221-.681,80.453-44.75.757-89.489,1.7Q1429.837,211.111,1429.83,170.116Zm-173.344,80.289q-.212-40.238-.681-80.453v-.74c.987,0,1.963.023,2.949.023q43.745.389,87.491.881-.035,41.013-.27,81.993Q1301.242,251.157,1256.485,250.405ZM36.83,170.116q43.763-.475,87.491-.881c.987,0,1.963-.023,2.949-.023v.74q-.475,40.221-.681,80.453-44.75.757-89.489,1.7Q36.837,211.111,36.83,170.116ZM1387.269,170c12.151-.067,24.359-.134,32.722-.144a60.082,60.082,0,0,0,8.946.269q0,41.014.258,82.015-2.037.043-3.622.108c-7.813-.09-23.391-.065-38.817-.038-17.026.029-33.867.057-39.878-.07q.247-41.013.259-82.015c1.368.014,3.306.022,5.684.022C1360.9,170.151,1374.05,170.077,1387.269,170ZM908.789,324.76q.107-38.123-.023-76.258,44.944-.018,89.888.153-.635,38.229-1.151,76.445Q953.139,324.907,908.789,324.76Zm-524.368-76.1q44.944-.177,89.888-.153-.142,38.123-.023,76.258-44.345.14-88.713.34Q385.043,286.872,384.421,248.655ZM815.728,324.5q-.158-37.858-.293-75.705,46.231-.263,92.438-.293.035,13.36.059,26.685.018,24.779-.059,49.573Q861.8,324.6,815.728,324.5ZM475.143,275.187q.018-13.343.059-26.685,46.231.053,92.437.293-.158,37.841-.293,75.705-46.073.107-92.144.259Q475.114,299.962,475.143,275.187Zm536.2,49.973c-4.312-.023-8.625-.036-12.937-.059q.547-38.228,1.164-76.445,43.6.176,87.221.528V254.4q.017,35.55.024,71.135Q1049.078,325.341,1011.344,325.159ZM296.284,254.4v-5.217q43.6-.37,87.221-.528.635,38.229,1.164,76.445c-4.313.023-8.626.036-12.937.059q-37.735.177-75.47.376Q296.278,289.968,296.284,254.4ZM726.7,324.348q0-37.418-.071-74.872,25.487-.246,50.949-.446,18.471-.14,36.966-.235.07,19.953.141,39.9.07,17.89.152,35.8Q770.755,324.378,726.7,324.348ZM568.392,288.7q.053-19.952.141-39.9,18.471.107,36.965.235,20.392.155,40.79.349v.556c1.422-.019,5.106-.045,10.158-.076q-.069,37.263-.07,74.489-44.079.053-88.137.152Q568.327,306.613,568.392,288.7Zm519.326,36.849q0-38.175-.034-76.364,42.142.352,84.295.869-.67,12.548-1.34,25.087-1.322,25.45-2.467,50.89Q1127.952,325.764,1087.718,325.547ZM212.435,275.139q-.652-12.531-1.339-25.087,42.142-.51,84.295-.869-.018,38.177-.035,76.364-40.221.228-80.454.481Q213.792,300.578,212.435,275.139ZM657.3,272.918q.019-11.537.047-23.063c20.83-.122,62.686-.311,68.371-.365q.035,11.721.048,23.429.053,25.716.047,51.431c-3.605-.005-21.609.036-39.644.077l-7.259.016v-.116q-10.8.018-21.656.023Q657.276,298.651,657.3,272.918Zm863.037,18.072q.053-19.863.165-39.7,41.33-.7,82.673-1.221c1.386,25.321,2.726,50.654,3.819,75.975q-43.358.282-86.715.6Q1520.283,308.82,1520.341,290.99ZM1169.077,326.04c1.093-25.322,2.433-50.655,3.819-75.975q41.332.528,82.674,1.221.105,19.845.164,39.7.07,17.819.059,35.65Q1212.435,326.305,1169.077,326.04ZM127.341,290.99q.053-19.863.165-39.7,41.33-.7,82.673-1.221c1.386,25.321,2.726,50.654,3.819,75.975q-43.358.282-86.715.6Q127.283,308.82,127.341,290.99Zm1302.924-12.855q-.07-12.548-.165-25.133,44.732-.934,89.489-1.7-.193,37.665-.211,75.342-44.326.352-88.63.716Q1430.464,302.753,1430.265,278.135ZM1256.7,326.64q-.035-37.647-.212-75.342,44.75.757,89.489,1.7-.088,12.585-.165,25.133-.211,24.623-.481,49.221Q1301.018,326.969,1256.7,326.64ZM37.265,278.135Q37.194,265.587,37.1,253q44.732-.934,89.489-1.7-.193,37.665-.212,75.342-44.326.352-88.63.716Q37.463,302.753,37.265,278.135Zm1391.147-25.083c.256,0,.517-.009.784-.015q.23,37.171.658,74.342l-1.442.017v-.345c-6.283-.059-23.97.052-41.556.163-17.28.11-34.463.219-40.635.165q.441-37.169.658-74.342c6.009.128,22.841.1,39.862.076,17.623-.027,35.448-.054,41.671.089ZM657.257,325.386c20.815-.045,62.834-.151,68.559-.134q0,40.558-.071,81.123c-3.14,0-15.146,0-28.288,0l-18.545,0v-.055q-10.643.035-21.3.047h-.286Q657.276,365.887,657.257,325.386Zm69.382,81q.018-18.825.058-37.625V325.252q34.651.038,69.3.095c6.286.012,12.55.048,18.835.048q.14,40.59.306,81.17Zm-158.4-80.994c6.286,0,12.55-.036,18.835-.048q29.607-.045,59.214-.083v.142c1.421,0,5.075-.007,10.088-.019v43.376q.015,15.151.049,30.28h-.049c0,1.66-.006,4.182-.006,7.345l-88.437.176Q568.093,365.99,568.239,325.394Zm247.688,52.7q-.088-26.351-.2-52.688,46.073.088,92.145.247-.111,36.311-.456,72.6h-.1c.019,1.345.031,3.272.04,5.665q-.013,1.409-.029,2.821l-90.914-.175c.014-3.627.025-6.5.031-8.311h-.438Q815.969,388.169,815.927,378.094ZM475.2,325.652q46.071-.158,92.144-.247-.107,26.332-.2,52.688-.053,10.468-.085,20.949h-.316c0,1.687.013,4.274.022,7.521l-90.77.175c.018-3.334.039-5.982.062-7.7h-.394Q475.309,362.353,475.2,325.652ZM908.282,406.74c0-.919,0-1.794-.006-2.613q.157-15.5.266-30.992.158-23.741.223-47.482,44.362.159,88.713.353-.5,36.134-.92,72.249h-.113c.016,1.577.026,3.966.031,6.966-.006.566-.013,1.13-.02,1.7ZM385.6,326.005q44.345-.2,88.713-.353.053,23.76.223,47.482.123,16.8.293,33.605l-87.971.177c.013-3.42.028-6.134.046-7.873h-.375Q386.091,362.53,385.6,326.005ZM1018.8,406.951l-21.436-.034c0-.192,0-.38,0-.567q.262-24.2.581-48.373.193-15.985.446-31.96,44.2.194,88.42.435,0,40.308.011,80.653Q1052.827,407.034,1018.8,406.951Zm-722.544-80.5q44.2-.247,88.419-.435.247,15.985.446,31.961.336,24.463.589,48.939l-21.444.034q-34.016.072-68.021.153Q296.249,366.76,296.26,326.452Zm791.471,50.643q0-25.31-.013-50.643,40.2.212,80.418.47-1.567,36.092-2.334,72.205h-.157c-.007,1.773-.015,4.577-.025,8.119q-38.918-.072-77.851-.141c0-3.893,0-6.961.006-8.85h-.034Q1087.742,387.669,1087.731,377.095ZM214.938,326.922q40.221-.248,80.418-.47-.018,25.31-.012,50.643-.014,10.971-.013,21.948h-.153c0,1.766.005,4.549.012,8.061q-38.868.053-77.747.141c-.01-3.582-.02-6.416-.026-8.2h-.147Q216.564,362.977,214.938,326.922Zm1305.345.623q43.357-.317,86.763-.623,1,23.2,1.7,46.378.512,16.991.787,33.946-44.59.105-89.194.187Q1520.253,367.477,1520.283,327.544Zm-353.744,79.7q.282-16.956.787-33.946.67-23.177,1.7-46.378,43.375.3,86.763.623.035,39.938-.059,79.889Q1211.143,407.345,1166.539,407.246Zm-1039.256-79.7q43.357-.317,86.763-.623,1,23.2,1.7,46.378.512,16.991.788,33.946-44.591.105-89.195.187Q127.253,367.477,127.283,327.544Zm1303.476.717q30.509-.265,61.029-.506,13.783-.105,27.589-.212-.035,29.276.012,58.55.011,6.512.037,13.032h-.142c-.005,1.8-.005,4.672,0,8.306l-87.373.176q-.023-1.247-.044-2.493c.012-2.3.03-4.161.056-5.462h-.15Q1431.161,363.956,1430.759,328.262Zm-174.073,57.833q.053-29.275.012-58.55,13.817.124,27.589.212,30.509.229,61.03.506-.413,35.679-1.013,71.392h-.15c.025,1.3.043,3.162.056,5.463-.014.83-.03,1.662-.044,2.492l-87.373-.176c0-3.634,0-6.5,0-8.306h-.143Q1256.669,392.61,1256.685,386.095ZM37.759,328.262q30.509-.265,61.029-.506,13.784-.105,27.59-.212-.035,29.276.012,58.55.011,6.471.037,12.948h-.154c-.005,1.814,0,4.715,0,8.39l-87.02.175c.026-3.761.056-6.727.093-8.565H38.76Q38.158,363.65,37.759,328.262Zm1349.09-.154c12.579-.079,25.211-.158,33.684-.176.23.212,3.342.393,9.332.342q.282,24.251.624,48.5.215,14.539.473,29.069,0,.846-.007,1.763-1.37,0-2.543.018v-.594c-6.468-.017-24.329.136-42.1.288-17.446.149-34.8.3-41.195.288q0-.937-.008-1.8.248-14.519.474-29.031.352-24.251.623-48.5c1.1.01,2.543.013,4.276.013C1358.5,328.287,1372.639,328.2,1386.849,328.108ZM658.517,407.292c3.6,0,14.94-.008,26.349-.016,13.248-.009,26.581-.019,27.969-.016,4.444.009,8.675.019,12.91.032-.007,2.718-.013,6.854-.02,11.806h-.074c.02,5.548.033,17,.046,29.271-.013,12.265-.026,23.721-.046,29.271h.074c.006,4.953.013,9.088.02,11.806h-.157c-1.481,0-14.632.007-27.755.016s-26.22.018-27.594.015c-4.444-.008-8.675-.018-12.91-.031.03-10.917-.059-59.127-.059-81.347.037-.488.059-.806.059-.806h1.188ZM726.6,448.369c.015-16.175.029-33.76.042-41.077q35.2.053,70.371.141,9.059.019,18.141.024a87.09,87.09,0,0,0,.322,9.1c-.112,24.429-.3,63.176-.321,72.728q-9.077.018-18.142.023-35.2.089-70.371.141C726.626,482.128,726.612,464.544,726.6,448.369ZM586.064,489.3q-9.059-.018-18.141-.023c-.028-9.76-.15-49.543-.228-73.628.123-1.516.217-4.248.228-8.2q9.076-.018,18.141-.024,35.166-.088,70.306-.141c0,21.836.085,71.1.066,82.154Q621.237,489.394,586.064,489.3Zm-110.309-.212c.111-10.873.126-59.514.238-81.45q45.384-.07,90.779-.186c.066,21.882.218,70.845.258,81.824Q521.4,489.194,475.754,489.093Zm340.659-81.635q45.446.088,90.906.186c-.031,2.962,0,5.235.056,6.82,0,24.206-.155,64.868-.056,74.629q-45.631.07-91.274.188C816.085,478.424,816.32,429.854,816.413,407.458Zm91.87.186,88.161.176c-.034,2.786-.016,4.96.034,6.521-.013,24.151-.152,64.848-.034,74.575l-88.208.176C908.127,478.34,908.32,430.087,908.284,407.644ZM386.63,488.917c.13-10.79.14-59.118.22-81.1l87.987-.176c.031,3.152.112,5.523.213,7.115-.084,23.943-.113,64.52-.213,74.334Zm610.74-81.1,89.455.176q0,2.251.042,3.966c-.006,23.715-.023,66.766-.042,76.778l-89.477.176C997.231,478.246,997.4,430.3,997.37,407.821ZM296.249,488.741c-.018-9.694-.105-49.908-.145-73.791.083-1.577.139-3.9.145-6.953l89.477-.176c.033,3.03.112,5.337.209,6.919-.076,23.9-.1,64.412-.209,74.177Zm1089.985-80.527c13.425-.115,26.915-.23,35.513-.272-1.5.258,1.565.572,9.205.56-.067,21.749.242,69.157.053,79.733,0,0-.338.06-.751.149v-.149c-6.85.019-26.974.011-46.211,0-16.832-.007-32.986-.014-38.973,0-.19-10.576.12-57.984.053-79.733h.692C1352.7,408.5,1369.417,408.359,1386.233,408.215ZM1087.77,408q38.923.089,77.848.165c-.059,22.006-.141,69.765.028,80.415q-38.951.088-77.9.165C1087.743,478.143,1087.758,430.509,1087.77,408Zm-870.341,80.58c.159-10.026.087-53,.028-76.374q0-1.048-.006-2.3c0-.6,0-1.18,0-1.743q38.872-.088,77.746-.165c.038,22.018.139,70.028.139,80.744Q256.381,488.652,217.428,488.577Zm1302.913-.165c.026-9.5-.1-48.74-.146-72.61.094-1.552.155-4.043.146-7.475q44.591-.089,89.206-.165c.005.389.012.765.019,1.13.058,22.469.138,68.814-.019,79.285Q1564.939,488.488,1520.341,488.412ZM1166.507,409.29q.011-.547.02-1.128,44.609.088,89.206.165c-.01,3.428.051,5.919.146,7.471-.043,23.87-.172,63.115-.146,72.615q-44.59.088-89.206.165C1166.371,478.106,1166.449,431.759,1166.507,409.29ZM127.341,488.412c.026-9.47-.108-48.543-.155-72.458.1-1.538.165-4.081.155-7.627q44.591-.089,89.206-.165c0,.148,0,.294.007.439.06,22.247.151,69.409-.007,79.976Q171.939,488.488,127.341,488.412Zm1348.832-.094q-22.139-.035-44.251-.082c.176-10.393-.113-56.356-.071-78.583.044-.674.071-1.15.071-1.15q22.12-.036,44.251-.082,21.561-.054,43.111-.094c.028,22.045.184,69.507.165,80.086Q1497.8,488.358,1476.173,488.318Zm-219.382-79.991q21.561.053,43.111.094,22.139.034,44.251.082s.026.477.071,1.15c.041,22.226-.247,68.189-.071,78.583q-22.118.036-44.251.082-21.643.054-43.275.094C1256.606,477.833,1256.762,430.372,1256.791,408.327ZM83.173,488.318q-22.139-.035-44.251-.082c.178-10.485.181-57.6.325-79.734q21.958-.036,43.926-.081,21.555-.054,43.1-.094c.031,22.1.2,69.52.176,80.086Q104.8,488.358,83.173,488.318Zm1347.081.811v-.009c.217.005.463.009.739.009q-.263,15.422-.5,30.833-.352,24.13-.621,48.26c-13.242.115-71.328.14-83.659.244q-.282-24.253-.623-48.5-.23-15.422-.5-30.833c5.947-.01,21.925,0,38.633,0,10.467,0,21.222.008,29.977.008C1421.113,489.14,1427.1,489.137,1430.254,489.129Zm61.534,79.854q-30.509-.231-61.029-.506.458-39.656,1.151-79.349l87.538.176c-.013,7.109-.048,14.229-.059,21.338q-.053,29.276-.012,58.55Q1505.56,569.071,1491.788,568.983Zm-235.1-58.34c-.012-7.109-.047-14.229-.058-21.338l87.538-.176q.706,39.674,1.152,79.349-30.51.265-61.03.506-13.782.105-27.589.211Q1256.732,539.919,1256.685,510.643Zm-1157.9,58.34q-30.509-.231-61.029-.506.458-39.656,1.151-79.349l87.539.176c-.013,7.109-.047,14.229-.059,21.338q-.053,29.276-.012,58.55Q112.56,569.071,98.788,568.983Zm1421.5.211q-.036-39.938.058-79.889,44.591.089,89.194.188-.281,16.956-.787,33.946-.67,23.177-1.7,46.378Q1563.67,569.516,1520.283,569.193Zm-352.957-45.754q-.512-16.991-.787-33.946,44.592-.105,89.194-.188.089,39.956.059,79.889-43.358.317-86.763.624Q1168.025,546.621,1167.326,523.439ZM127.283,569.193q-.036-39.937.059-79.889,44.591.089,89.195.188-.281,16.956-.788,33.946-.67,23.177-1.7,46.378Q170.67,569.516,127.283,569.193Zm960.448-49.549q.018-15,.012-30.01,38.951-.053,77.915-.141c.435,26.779,1.316,53.556,2.479,80.324q-40.221.246-80.418.469Q1087.737,544.978,1087.731,519.644ZM214.938,569.817c1.163-26.767,2.044-53.546,2.479-80.324q38.952.071,77.915.141,0,15.016.013,30.01,0,25.308.012,50.642Q255.153,570.076,214.938,569.817Zm783.011-31.056q-.335-24.463-.588-48.939l21.443-.035q34.016-.07,68.021-.152,0,40.343-.011,80.652-44.2.248-88.42.436Q998.148,554.735,997.949,538.761ZM296.26,570.286q0-40.307-.012-80.652,34,.07,68.021.152l21.444.035q-.265,24.482-.589,48.939-.193,15.987-.446,31.961Q340.476,570.527,296.26,570.286ZM908.542,523.6q-.123-16.8-.293-33.6l88.207-.177q.477,40.451,1.022,80.911-44.343.194-88.713.353Q908.712,547.327,908.542,523.6ZM385.6,570.733q.564-40.466,1.022-80.911l88.207.177q-.176,16.813-.293,33.6-.158,23.741-.223,47.482Q429.947,570.927,385.6,570.733Zm430.331-52.088c.048-9.482.071-18.976.118-28.471L907.332,490q.423,40.536.54,81.087-46.073.159-92.145.248Q815.834,545,815.927,518.645ZM475.2,571.085q.123-40.555.54-81.087l91.286.176c.048,9.494.07,18.988.118,28.471q.088,26.349.2,52.688Q521.274,571.245,475.2,571.085Zm251.5-43.111q-.017-18.823-.058-37.624l88.5-.176q-.159,40.574-.306,81.17c-6.286,0-12.549.035-18.835.047q-29.607.044-59.214.083v-.141c-1.42,0-5.075.007-10.088.017ZM587.075,571.391c-6.286-.012-12.549-.047-18.835-.047q-.14-40.592-.306-81.17l88.5.176q-.019,18.824-.059,37.624v43.51Q621.726,571.45,587.075,571.391ZM686.39,490.36l17.771,0v.054q10.786-.035,21.585-.047.053,40.488.071,80.99c-20.815.045-62.834.151-68.559.132q0-40.555.071-81.123c1.144,0,3.467,0,6.593,0C669.54,490.365,677.754,490.362,686.39,490.36Zm659.831,79c10.754-.091,56.3-.122,76.554-.2,1.555.1,3.915.177,7.078.2q-.436,36.813-.653,73.625c-14.226.269-70.409.466-82.321.718Q1346.651,606.53,1346.221,569.358Zm84.044,49.244q.212-24.621.482-49.22,44.31.387,88.63.716.035,37.646.211,75.342-44.673-.757-89.335-1.7v-.778l-.149,0Q1430.19,630.768,1430.265,618.6ZM1256.7,570.1q44.327-.352,88.631-.716.282,24.6.481,49.22.072,12.549.165,25.133-44.732.934-89.489,1.7Q1256.68,607.774,1256.7,570.1ZM37.1,643.736q.088-12.583.165-25.133.212-24.621.482-49.22,44.31.387,88.63.716.036,37.646.212,75.342Q81.839,644.683,37.1,643.736Zm1483.406,1.715q-.107-19.845-.165-39.7-.07-17.82-.058-35.65,43.357.335,86.715.6c-1.093,25.321-2.433,50.655-3.819,75.975Q1561.849,646.146,1520.506,645.451ZM1169.077,570.7q43.358-.284,86.716-.6,0,17.819-.059,35.65-.051,19.863-.164,39.7-41.33.706-82.674,1.222C1171.509,621.353,1170.17,596.02,1169.077,570.7ZM127.506,645.451q-.107-19.845-.165-39.7-.07-17.82-.059-35.65,43.357.335,86.715.6c-1.093,25.321-2.433,50.655-3.819,75.975Q168.849,646.146,127.506,645.451Zm960.213-74.26q40.221-.229,80.454-.481,1.11,25.45,2.467,50.89.652,12.531,1.34,25.086-42.143.512-84.295.87Q1087.7,609.379,1087.718,571.192ZM211.1,646.685q.67-12.548,1.339-25.086,1.322-25.451,2.467-50.89,40.221.265,80.454.481,0,38.175.035,76.364Q253.249,647.2,211.1,646.685Zm787.31-75.047c4.313-.023,8.626-.035,12.937-.058q37.735-.177,75.471-.376-.019,35.567-.024,71.135v5.217q-43.6.37-87.221.528Q998.935,609.855,998.406,571.638ZM296.284,647.556v-5.217q-.018-35.55-.023-71.135,37.735.194,75.47.376c4.312.023,8.625.035,12.938.058q-.547,38.229-1.164,76.446Q339.9,647.907,296.284,647.556Zm612.482.681q.142-38.123.023-76.258,44.345-.142,88.714-.341.528,38.229,1.151,76.446-40.495.159-80.995.155Zm-524.345-.153q.635-38.229,1.152-76.446,44.362.194,88.713.341-.107,38.123.023,76.258l-8.894,0Q424.921,648.239,384.421,648.084Zm431.014-.141q.158-37.842.293-75.706,46.073-.105,92.145-.258.088,24.8.059,49.573-.018,13.343-.059,26.685Q861.642,648.184,815.434,647.943ZM475.143,621.552q-.018-24.781.059-49.573,46.071.158,92.144.258.158,37.859.293,75.706-46.231.263-92.437.293Q475.166,634.876,475.143,621.552ZM726.7,572.39q44.08-.054,88.137-.153-.088,17.889-.152,35.8-.054,19.95-.141,39.9-18.472-.107-36.966-.236-20.392-.155-40.79-.349V646.8c-1.422.019-5.106.045-10.158.075Q726.7,609.618,726.7,572.39ZM568.392,608.04q-.072-17.89-.153-35.8,44.082.123,88.137.153,0,37.418.071,74.871-25.487.247-50.949.446-18.471.142-36.965.236Q568.463,627.99,568.392,608.04ZM696.9,572.314l7.261-.016v.116q10.8-.019,21.656-.023-.017,25.7-.047,51.43-.018,11.536-.047,23.063c-20.83.123-62.686.311-68.371.366q-.035-11.721-.048-23.429-.051-25.716-.047-51.43h.811C663.045,572.391,679.959,572.353,696.9,572.314Zm649.979,72.281c10.1-.213,51.992-.379,73.194-.589.424.214,3.465.47,9.122.589q-.246,40.857-.258,81.7c-14.576.132-70.053.191-81.8.316Q1347.138,685.6,1346.879,644.595Zm83.221.035q44.732.952,89.489,1.7.212,40.238.681,80.453v.74c-.986,0-1.962-.023-2.949-.023q-43.534-.385-87.067-.877v-.346l-.424.005Q1429.866,685.439,1430.1,644.63Zm-174.3,82.156q.475-40.221.681-80.453,44.75-.757,89.489-1.7.263,41,.27,81.992-43.763.476-87.491.881c-.987,0-1.963.023-2.949.023ZM124.321,727.5q-43.744-.387-87.491-.881.035-41.014.27-81.992,44.732.952,89.489,1.7.212,40.238.681,80.453v.74C126.284,727.526,125.308,727.5,124.321,727.5Zm1396.867.035q-.476-40.608-.681-81.193,41.313.7,82.626,1.221c-1.469,26.838-3,53.7-4.348,80.547Q1559.973,727.849,1521.187,727.538Zm-348.245-79.971q41.314-.528,82.627-1.221-.212,40.608-.682,81.193-38.792.317-77.6.576C1175.938,701.265,1174.412,674.4,1172.942,647.566ZM128.187,727.538q-.477-40.608-.681-81.193,41.313.7,82.626,1.221c-1.469,26.838-3,53.7-4.348,80.547Q166.973,727.849,128.187,727.538Zm959.5-79.089q42.194-.352,84.353-.87c1.469,26.837,3,53.686,4.36,80.535q-44.362.283-88.726.47Q1087.672,688.522,1087.684,648.448ZM206.677,728.114c1.363-26.849,2.891-53.7,4.36-80.535q42.177.529,84.354.87,0,40.079.012,80.135Q251.039,728.408,206.677,728.114Zm450.675-79.971c4.068-.04,26.657-.147,46.809-.248v.024q10.786.124,21.561.223-.053,40.027-.2,80.018l-21.362-.141v.147l-7.164,0c-17.971-.012-35.9-.023-39.445,0Q657.394,688.171,657.352,648.142Zm69.076,80.018q.123-39.99.2-80.005,43.957.44,87.9.681-.158,39.884-.305,79.759-12.336-.053-24.674-.094-26.374-.117-52.763-.278v-.063c-1.215.008-4.113.013-8.12.014ZM568.545,648.836q43.938-.229,87.9-.681.07,40.009.2,80.005-31.566.194-63.121.341-12.355.053-24.675.094Q568.691,688.71,568.545,648.836ZM999.581,649q43.587-.177,87.209-.541l-.035,80.123q-42.881.159-85.775.224Q1000.221,688.885,999.581,649ZM296.319,728.583l-.035-80.123q43.605.37,87.209.541-.67,39.9-1.4,79.807Q339.177,728.754,296.319,728.583Zm518.822.012q.14-39.886.293-79.759,46.213.263,92.426.293-.142,39.868-.553,79.713Q861.237,728.772,815.141,728.6ZM475.214,649.13q46.213-.018,92.426-.293.142,39.884.293,79.759-46.089.177-92.167.248Q475.36,688.974,475.214,649.13Zm513.522-.082c3.314-.024,6.615-.036,9.929-.047.023.94.035,1.892.047,2.855q.652,38.457,1.387,76.952-45.931.07-91.874.035.4-39.868.528-79.713,9.7.008,19.407.009Q958.449,649.139,988.736,649.048Zm-605.76,79.76q.74-38.494,1.386-76.952c.012-.963.023-1.915.047-2.855,3.314.011,6.615.023,9.929.047q39.992.123,79.984.082.121,39.868.528,79.713-15.312.012-30.624.012Q413.6,728.854,382.976,728.808Zm1122.948,84.865-75.883-.388c-.129-25.051-.212-60.7-.212-85.748q45.226.494,90.453.881c.293,24.923.67,60.414,1.163,85.336Q1513.672,813.72,1505.924,813.673Zm-250.132-85.254q45.226-.387,90.452-.881c0,25.052-.082,60.7-.211,85.748l-75.882.388q-7.756.053-15.522.082C1255.123,788.833,1255.5,753.342,1255.792,728.419ZM112.924,813.673l-75.883-.388c-.129-25.051-.211-60.7-.211-85.748q45.226.494,90.453.881c.293,24.923.67,60.414,1.163,85.336Q120.672,813.72,112.924,813.673Zm1409.414.082c-.47-24.91-.846-60.413-1.139-85.324q38.757.335,77.527.6c-.317,6.381-.646,12.773-.94,19.176-.894,18.436-1.669,47.466-2.28,65.913Q1558.916,813.943,1522.338,813.755Zm-344.049-65.549c-.294-6.4-.623-12.8-.94-19.176q38.758-.263,77.527-.6c-.293,24.91-.67,60.413-1.139,85.324q-36.589.176-73.168.365C1179.958,795.672,1179.182,766.642,1178.289,748.206ZM129.338,813.755c-.47-24.91-.846-60.413-1.139-85.324q38.757.335,77.527.6c-.317,6.381-.646,12.773-.94,19.176-.894,18.436-1.669,47.466-2.28,65.913Q165.917,813.943,129.338,813.755Zm958.323-53.023q0-15.633.011-31.255,44.38-.175,88.772-.446c1.269,24.817,2.4,60.25,3.219,85.113q-46.019.229-92.027.47C1087.636,800.172,1087.661,775.161,1087.661,760.732Zm-884.25,53.411c.823-24.863,1.951-60.3,3.219-85.113q44.381.282,88.772.446.016,15.634.011,31.255c0,14.43.024,39.441.024,53.881Q249.419,814.385,203.411,814.143Zm454.469,2.327c-.129-25.6-.246-61.812-.328-87.415,3.263-.015,18.684,0,35.118.006,11.805.008,24.133.015,32.853.013-.082,25.592-.2,61.772-.329,87.368-7.61,0-17.877.009-28.121.015-12.649.008-25.264.016-32.8.016C661.152,816.474,658.9,816.473,657.88,816.469Zm-68.479-.353c-6.756-.023-13.5-.07-20.256-.094-.094-25.322-.189-61.213-.294-86.522q43.9-.159,87.8-.446.054,8.6.059,17.213c.083,19.869.176,50.333.282,70.2Zm136.967-69.849q.018-8.609.059-17.194l2.975,0q42.4.254,84.82.428c-.105,25.31-.2,61.2-.293,86.522-6.756.023-13.5.07-20.257.094l-62.178.325h-5.408C726.193,796.572,726.287,766.127,726.368,746.268Zm275.963,60.2c-.458-22.066-.916-54.7-1.328-76.757q42.883-.07,85.752-.236c0,24.852-.012,60.285-.023,85.136q-42.106.211-84.212.435C1002.449,812.181,1002.39,809.337,1002.331,806.469Zm-705.989,8.143c-.012-24.851-.023-60.285-.023-85.136q42.881.177,85.752.236c-.41,22.054-.869,54.691-1.328,76.758-.059,2.866-.118,5.71-.188,8.577Q338.449,814.837,296.342,814.613Zm518.74-71.764c.011-4.453.023-8.895.035-13.348q46.107.176,92.191.223c-.258,25.087-.6,60.731-1.01,85.817q-45.738.247-91.463.459C814.918,795.143,814.988,763.705,815.082,742.849ZM476.776,815.541c-.41-25.086-.752-60.73-1.01-85.817q46.089-.07,92.192-.223c.012,4.453.023,8.895.035,13.348.094,20.857.164,52.295.247,73.151Q522.52,815.788,476.776,815.541Zm519.7-85.817h3.631c.47,24.91.975,60.413,1.516,85.324q-47.235.247-94.436.493c.318-18.894.6-48.357.812-67.252q.105-9.27.2-18.565,25.491.02,50.972.027Q977.828,729.751,996.48,729.724Zm-521.607,0q.088,9.288.2,18.565c.212,18.895.493,48.358.811,67.252q-47.219-.263-94.436-.493c.541-24.91,1.047-60.413,1.516-85.324H386.6q18.653.03,37.307.027Q449.383,729.751,474.873,729.724Z" transform="translate(0.5 0.5)"/></svg>